<?xml version="1.0" standalone="no"?>
<!DOCTYPE svg PUBLIC "-//W3C//DTD SVG 20010904//EN"
 "http://www.w3.org/TR/2001/REC-SVG-20010904/DTD/svg10.dtd">
<svg version="1.0" xmlns="http://www.w3.org/2000/svg"
 width="1500.000000pt" height="1500.000000pt" viewBox="0 0 1500.000000 1500.000000"
 preserveAspectRatio="xMidYMid meet">
<metadata>
Created by potrace 1.11, written by Peter Selinger 2001-2013
</metadata>
<g transform="translate(0.000000,1500.000000) scale(0.100000,-0.100000)"
fill="#000000" stroke="none">
<path d="M7030 14941 c0 -5 11 -16 23 -24 40 -26 52 -69 34 -119 -56 -152 -68
-193 -65 -221 3 -31 5 -32 63 -38 102 -11 112 -43 65 -222 -28 -107 -83 -228
-182 -402 -47 -82 -98 -175 -113 -205 -26 -51 -27 -55 -9 -65 10 -5 37 -29 60
-53 40 -40 96 -72 127 -72 8 0 49 62 92 138 99 175 153 256 207 311 38 39 43
42 46 23 2 -11 -9 -44 -23 -72 -31 -61 -27 -93 12 -114 26 -13 28 -12 54 24
15 20 53 59 85 86 113 96 162 145 185 189 13 24 20 47 16 52 -23 22 -181 13
-388 -23 l-36 -6 9 58 c15 88 2 343 -22 449 -23 101 -68 206 -108 249 -39 42
-132 82 -132 57z"/>
<path d="M8158 14743 c-4 -105 -12 -159 -46 -298 -22 -93 -44 -191 -47 -217
l-7 -47 -25 30 c-49 57 -115 74 -173 44 -33 -17 -56 -53 -43 -65 4 -5 28 -10
53 -12 31 -2 46 -8 48 -19 1 -8 -20 -51 -49 -95 -37 -58 -108 -135 -264 -289
-218 -215 -321 -343 -297 -367 20 -20 77 1 137 52 33 28 62 50 66 50 35 0 -9
-95 -100 -218 l-61 -82 -57 0 c-32 0 -134 -9 -228 -20 -93 -11 -188 -20 -210
-21 l-40 -1 50 -9 c86 -16 172 -49 234 -89 34 -22 61 -44 61 -49 0 -6 -27 -41
-61 -78 -112 -126 -229 -327 -229 -394 0 -15 20 -41 54 -73 79 -73 80 -88 13
-194 -72 -113 -111 -188 -103 -200 3 -6 42 3 93 22 83 29 97 31 228 31 122 0
150 -3 214 -24 143 -47 271 -156 336 -285 l24 -49 -34 -42 c-49 -59 -64 -101
-75 -212 -9 -93 -11 -99 -42 -126 -79 -67 -219 -110 -414 -127 -183 -16 -235
-8 -311 49 -486 359 -1185 357 -1583 -7 -63 -57 -70 -61 -70 -40 0 13 16 51
36 84 44 72 56 130 28 141 -34 13 -149 -27 -328 -115 l-180 -87 -100 0 c-75 0
-113 5 -147 18 l-46 19 29 70 c51 122 40 197 -33 213 -16 4 -29 11 -29 16 0
26 54 111 91 143 75 64 121 75 433 106 123 13 202 38 253 83 33 29 34 32 17
44 -10 7 -25 13 -33 13 -39 0 -147 66 -269 164 -131 105 -190 141 -265 165
-45 15 -41 25 17 40 25 6 48 16 51 21 10 17 -13 37 -48 44 -51 10 -166 68
-234 120 l-61 46 5 58 5 58 -60 55 c-33 31 -117 92 -186 135 -111 69 -246 182
-246 205 0 5 21 -3 48 -16 67 -34 134 -48 198 -43 70 6 79 15 59 61 -14 35
-14 38 5 57 28 28 58 25 153 -15 25 -10 22 10 -13 83 -52 111 -124 169 -396
321 -60 34 -130 80 -155 101 -42 38 -43 39 -18 40 29 0 54 23 44 40 -4 6 -54
10 -127 10 l-121 0 6 -117 c7 -145 32 -243 96 -379 60 -124 121 -217 268 -403
63 -79 137 -177 164 -218 51 -75 95 -161 86 -169 -2 -2 -60 -15 -130 -28 -391
-75 -575 -172 -607 -319 -9 -38 -9 -60 -1 -80 11 -27 11 -28 42 -11 27 14 53
15 174 9 137 -7 145 -6 184 15 42 24 59 48 38 55 -6 2 -33 6 -59 10 -40 5
-144 60 -182 95 -5 5 24 25 64 45 234 118 503 96 642 -53 56 -59 83 -111 102
-192 l14 -60 -36 -25 c-50 -34 -109 -52 -230 -70 -106 -15 -181 -41 -218 -76
-21 -19 -21 -19 -40 2 -10 12 -37 31 -59 43 -36 19 -56 21 -190 21 -82 0 -189
-4 -237 -8 l-88 -9 17 -31 c47 -94 151 -178 285 -232 46 -18 174 -58 285 -89
111 -31 218 -62 237 -70 36 -15 35 -12 51 -123 15 -103 66 -202 128 -253 43
-35 122 -59 194 -60 89 0 193 22 415 90 109 34 228 67 265 75 140 30 333 11
471 -47 73 -30 150 -84 288 -201 92 -78 172 -122 271 -148 l81 -22 106 27
c134 35 161 31 170 -25 3 -22 25 -81 47 -132 77 -175 117 -317 89 -317 -37 0
-221 74 -410 165 -274 133 -387 164 -490 135 -76 -21 -77 -25 -25 -125 88
-173 202 -304 538 -619 l157 -148 49 13 c44 11 52 10 93 -9 27 -14 76 -56 126
-111 l81 -88 -60 -18 c-33 -10 -62 -22 -64 -25 -3 -4 39 -10 93 -13 53 -3 120
-10 147 -16 l50 -12 42 -95 c23 -51 39 -94 36 -94 -13 0 -260 108 -498 218
-530 244 -734 305 -1025 305 -222 1 -426 -49 -633 -154 -82 -42 -117 -67 -179
-130 -64 -64 -85 -94 -126 -181 -57 -117 -77 -189 -93 -336 -26 -244 43 -562
173 -786 178 -308 611 -461 914 -322 30 14 54 23 54 20 0 -2 -29 -51 -65 -109
-117 -189 -126 -225 -81 -320 36 -79 45 -83 125 -51 134 52 282 146 616 390
l200 146 173 0 c134 0 172 -3 172 -13 0 -11 51 -37 73 -37 4 0 7 11 7 25 l0
25 119 0 118 0 31 -67 c16 -38 68 -151 115 -253 313 -684 447 -1193 447 -1700
0 -239 -34 -487 -96 -696 -40 -136 -40 -134 -12 -134 50 0 88 23 143 85 61 69
104 91 160 81 29 -6 36 -13 44 -42 14 -50 -7 -110 -63 -186 -57 -76 -59 -104
-11 -124 66 -27 71 -23 83 69 33 243 37 322 36 797 -1 355 -7 578 -22 830 -11
190 -19 346 -17 348 1 1 15 -4 31 -13 43 -22 90 -29 123 -17 29 10 30 10 26
-16 -19 -110 -45 -391 -43 -452 3 -74 7 -73 24 8 10 50 19 16 20 -75 1 -64 10
-142 28 -224 14 -70 26 -147 26 -173 l0 -46 -25 16 c-47 31 -72 -2 -99 -126
-8 -41 -18 -85 -22 -98 l-6 -22 47 20 c59 25 95 26 95 2 0 -9 -9 -49 -20 -87
-29 -102 -27 -175 6 -215 15 -17 30 -28 34 -23 11 12 47 175 60 272 14 106 14
390 0 736 l-12 270 43 37 c24 21 95 67 158 103 l115 65 23 -39 23 -39 -47 -79
c-108 -182 -190 -386 -229 -573 -31 -146 -21 -469 16 -539 4 -7 10 15 13 50 4
46 11 68 25 79 17 14 20 33 25 171 7 219 42 348 184 669 32 73 61 126 65 122
17 -17 159 -286 258 -487 592 -1207 761 -2208 523 -3095 -58 -218 -111 -356
-224 -584 -66 -133 -69 -143 -69 -210 0 -90 22 -182 49 -209 20 -21 21 -21 42
-1 29 25 142 194 213 318 234 404 369 810 421 1261 18 161 21 525 5 680 -84
822 -417 1686 -1049 2724 -73 121 -81 139 -81 185 0 28 -4 65 -9 82 -8 27 -4
36 36 84 24 29 49 63 55 74 11 20 12 18 28 -19 l17 -40 5 52 c11 114 116 252
271 358 l82 55 631 0 631 0 49 -26 c71 -38 120 -79 304 -259 91 -89 188 -178
216 -198 86 -61 177 -99 252 -104 79 -5 111 10 156 76 66 94 39 212 -118 516
-149 290 -263 462 -348 524 -64 47 -98 50 -203 13 l-90 -32 -521 0 -522 0 -13
68 c-14 75 -18 166 -7 178 4 4 25 -5 46 -20 21 -14 42 -26 46 -26 4 0 7 48 6
108 -1 69 4 137 16 192 22 109 26 537 6 675 -23 158 -63 336 -102 457 -107
325 -350 688 -461 688 -16 0 -29 -2 -29 -6 0 -3 19 -32 41 -66 119 -174 192
-420 206 -689 l6 -116 -49 -19 c-72 -28 -210 -26 -286 4 -31 13 -72 33 -91 46
l-34 24 -12 -71 c-15 -90 -42 -152 -89 -201 -84 -87 -216 -112 -320 -60 -59
29 -59 29 -36 139 9 42 14 79 11 81 -2 3 -27 -11 -55 -30 -29 -19 -54 -31 -57
-26 -19 31 -27 270 -21 635 7 470 12 521 55 579 65 85 64 81 71 348 7 277 -1
251 88 304 62 38 46 39 -23 2 l-58 -31 5 279 c3 153 2 351 -2 439 -4 88 -7
161 -5 163 1 1 18 -5 38 -13 49 -20 123 -19 173 4 120 54 220 215 242 386 l7
59 70 38 c39 21 108 52 155 69 47 17 100 42 118 55 34 27 118 131 110 139 -2
2 -33 -5 -68 -17 -93 -30 -253 -29 -432 2 -174 30 -185 27 -214 -55 -14 -40
-30 -65 -46 -74 -43 -25 -54 -11 -60 76 -7 92 -30 157 -85 239 -63 93 -92 158
-102 230 -10 66 -1 185 19 269 14 58 13 62 -20 68 -44 9 -106 71 -140 141 -43
87 -65 185 -95 418 -14 113 -32 228 -40 257 -14 54 -39 101 -54 101 -5 0 -11
-57 -13 -127z m-100 -727 c-2 -10 -8 -13 -16 -7 -7 4 -10 15 -6 25 8 21 28 6
22 -18z m-185 -427 c2 -132 0 -149 -17 -168 -23 -25 -68 -27 -120 -6 -33 14
-37 14 -43 -1 -3 -9 -2 -68 4 -132 10 -121 5 -174 -20 -199 -13 -13 -20 -9
-56 30 -23 25 -55 50 -72 57 -16 7 -28 16 -27 19 2 3 38 75 81 159 76 149 161
352 173 412 4 17 22 44 43 62 l36 32 8 -60 c5 -32 10 -125 10 -205z m527 46
c14 -17 7 -51 -17 -82 l-18 -22 -43 19 c-55 25 -55 56 -2 82 43 22 64 23 80 3z
m-872 -1087 c73 -67 146 -98 250 -106 57 -4 72 -8 68 -18 -19 -48 -28 -162
-23 -273 7 -159 43 -306 122 -495 l57 -137 -28 -102 c-30 -111 -43 -306 -27
-382 8 -38 7 -42 -63 -135 -39 -52 -149 -207 -244 -345 -243 -351 -352 -495
-484 -640 l-45 -50 -1 45 c-1 128 -32 246 -158 607 -28 78 -56 174 -63 214
l-13 72 26 21 c29 24 100 153 148 268 30 72 35 78 67 84 68 13 206 -3 348 -40
84 -22 177 -39 231 -43 l91 -6 26 44 c45 78 50 111 53 375 l4 252 -78 78 c-43
44 -109 124 -147 179 -160 235 -231 328 -300 394 -81 79 -97 84 -189 56 -27
-8 -67 -15 -88 -15 -32 0 -40 5 -50 26 -11 24 -8 35 31 108 65 119 126 211
178 267 l46 49 97 -148 c63 -96 119 -167 158 -204z m952 307 l45 -11 3 -72 c3
-64 -1 -82 -34 -160 -20 -48 -44 -109 -54 -137 l-18 -49 -7 39 c-3 22 -8 51
-10 65 -2 14 4 68 13 121 16 99 12 139 -23 223 -7 17 -6 17 16 6 13 -8 44 -18
69 -25z m-222 -430 c11 -31 12 -90 7 -273 -7 -208 -9 -233 -24 -230 -14 3 -16
28 -16 235 0 222 -1 232 -22 261 -16 22 -19 32 -10 41 23 23 51 8 65 -34z
m132 -638 c0 -48 -31 -207 -40 -207 -20 0 -30 64 -20 128 17 105 60 162 60 79z
m34 -293 c18 -48 -4 -228 -25 -207 -15 15 -26 154 -17 192 9 33 32 41 42 15z
m36 -342 c0 -13 -12 -57 -26 -96 -16 -42 -27 -94 -28 -128 -1 -64 -7 -71 -24
-33 -19 41 -14 82 20 197 25 85 35 105 45 96 7 -6 13 -22 13 -36z m-110 -782
c17 -17 20 -33 19 -92 -1 -40 -4 -98 -8 -128 l-7 -55 -26 50 c-36 70 -66 230
-45 239 25 10 48 5 67 -14z m-369 -300 c11 -73 18 -143 15 -156 -9 -34 -50
-41 -106 -20 -74 29 -103 31 -125 6 -22 -24 -25 -18 58 -116 62 -74 78 -113
65 -159 -15 -54 -23 -56 -123 -38 -61 10 -98 23 -114 37 -25 23 -101 130 -101
143 0 4 32 27 70 51 39 24 99 72 134 108 61 60 159 196 187 257 7 15 14 25 16
23 2 -2 13 -63 24 -136z m-970 -275 c68 -24 142 -80 194 -146 26 -33 45 -62
43 -64 -2 -3 -52 -14 -111 -25 -59 -12 -114 -23 -121 -26 -9 -3 -15 6 -19 26
-4 17 -20 62 -37 100 -32 72 -38 118 -18 138 15 15 17 15 69 -3z m2197 -62
c12 -3 28 0 36 6 16 14 31 -1 41 -39 6 -25 4 -29 -61 -118 -16 -21 -16 -24 0
-41 10 -11 28 -22 41 -25 23 -6 23 -7 -41 -136 -50 -99 -76 -139 -110 -169
-39 -34 -98 -61 -109 -49 -2 1 12 56 30 121 19 65 50 191 70 280 45 202 41
191 63 182 9 -4 27 -10 40 -12z m270 -45 c21 -21 13 -55 -23 -102 -19 -26 -35
-51 -35 -56 0 -12 21 -13 52 -1 49 18 78 21 78 10 0 -6 -16 -46 -35 -89 -29
-65 -35 -89 -35 -146 0 -38 4 -86 9 -106 l9 -38 -55 0 c-51 0 -58 -3 -92 -39
-54 -58 -103 -131 -99 -149 4 -23 34 -27 63 -8 14 9 40 39 59 68 23 34 37 47
40 37 43 -116 53 -200 37 -312 -14 -99 -53 -218 -93 -279 l-30 -48 -247 0
-247 0 -39 97 c-47 118 -52 169 -28 248 19 60 19 60 63 66 25 4 91 25 147 48
59 24 127 44 162 47 34 4 61 11 61 16 0 13 -47 58 -61 58 -6 0 -46 -16 -89
-35 -44 -20 -94 -35 -114 -35 l-37 0 73 59 c124 99 238 232 332 388 41 70 146
285 146 302 0 14 13 14 28 -1z m-442 -116 c9 -47 -6 -91 -75 -212 -33 -58 -65
-126 -72 -152 -13 -55 -20 -57 -87 -26 -50 24 -106 76 -210 196 -56 64 -63 76
-57 102 6 27 10 29 33 23 48 -12 255 -9 293 5 43 15 102 71 120 114 l12 30 18
-23 c10 -13 21 -39 25 -57z m700 -37 c-4 -44 -9 -97 -12 -117 -8 -48 8 -50 53
-6 l33 32 -1 -295 -1 -294 -17 65 c-10 36 -39 126 -64 200 -71 205 -78 316
-31 478 16 52 17 55 31 36 12 -15 13 -37 9 -99z m-3884 36 c231 -40 464 -124
788 -286 286 -143 403 -179 508 -158 l51 10 27 -51 c44 -82 202 -344 255 -423
27 -40 49 -74 49 -76 0 -1 -78 -3 -172 -3 -145 -1 -186 -4 -252 -23 -79 -21
-183 -72 -179 -88 1 -4 5 -16 8 -25 7 -17 -11 -18 -290 -18 l-297 0 -92 42
c-85 40 -97 43 -178 43 l-87 0 -12 50 c-20 86 -74 191 -128 248 -97 103 -236
145 -311 95 -87 -58 -123 -264 -61 -348 29 -40 45 -36 71 22 22 46 29 53 57
56 63 6 140 -56 182 -148 52 -114 22 -241 -80 -341 -93 -90 -194 -125 -338
-116 -219 14 -390 109 -556 307 -126 152 -172 272 -162 425 12 176 101 340
281 521 173 173 302 251 471 287 103 22 309 21 447 -2z m2042 -789 c46 -38 57
-53 49 -64 -5 -7 -18 -34 -28 -60 -10 -27 -20 -48 -24 -47 -7 0 -375 525 -379
542 -2 7 70 -63 160 -154 90 -91 190 -189 222 -217z m787 75 c8 -18 6 -35 -10
-78 -29 -76 -41 -89 -68 -78 -31 11 -29 31 7 81 17 23 30 54 30 70 0 35 26 38
41 5z m976 -79 c-3 -8 -6 -5 -6 6 -1 11 2 17 5 13 3 -3 4 -12 1 -19z m-1772
-887 c22 -43 52 -164 66 -261 7 -47 12 -179 13 -295 1 -182 -2 -214 -17 -242
-16 -30 -16 -36 -2 -69 8 -20 15 -55 14 -78 0 -39 -1 -40 -12 -16 -6 14 -60
131 -120 260 -60 129 -133 294 -162 366 -50 124 -115 322 -115 351 0 10 34 13
160 13 l159 0 16 -29z m1174 25 c-2 -2 -31 -13 -64 -25 l-60 -23 24 26 c18 20
34 26 64 26 22 0 38 -2 36 -4z m-976 -147 c50 -77 54 -88 40 -102 -14 -13 -13
-18 8 -46 22 -29 22 -35 11 -79 -13 -47 -94 -256 -117 -301 -11 -21 -13 -2
-20 132 -8 167 3 504 15 490 5 -4 33 -47 63 -94z m427 -688 c16 -31 2 -51 -35
-51 -47 0 -51 14 -13 44 18 14 34 26 35 26 1 0 7 -9 13 -19z m50 -81 c0 -5 -5
-10 -11 -10 -5 0 -7 5 -4 10 3 6 8 10 11 10 2 0 4 -4 4 -10z m-212 -63 c19
-52 15 -137 -8 -174 -23 -38 -30 -40 -55 -13 -26 28 -18 183 11 205 29 22 39
18 52 -18z"/>
<path d="M6688 14818 c-59 -16 -70 -36 -79 -146 -4 -53 -9 -104 -11 -112 -2
-10 6 -16 25 -18 37 -4 92 50 105 104 28 114 39 170 35 177 -5 9 -28 8 -75 -5z"/>
<path d="M6220 14451 c0 -5 5 -13 10 -16 6 -3 10 -2 10 4 0 5 -4 13 -10 16 -5
3 -10 2 -10 -4z"/>
<path d="M6203 14340 c-1 -11 2 -22 8 -25 5 -4 9 5 9 19 0 30 -15 35 -17 6z"/>
<path d="M5937 14112 c-234 -454 -268 -799 -102 -1019 38 -51 180 -172 189
-162 2 2 -3 43 -10 91 -41 276 -44 799 -7 1075 14 99 15 134 7 137 -7 3 -39
-48 -77 -122z"/>
<path d="M4246 13915 c-115 -22 -182 -43 -264 -82 -74 -35 -101 -65 -88 -98 5
-15 8 -14 24 5 17 21 23 22 90 15 l71 -7 7 -36 c9 -52 28 -85 65 -116 44 -37
80 -50 216 -80 65 -14 140 -37 166 -51 l49 -25 -7 33 c-13 61 -52 134 -96 176
-40 39 -226 141 -256 141 -23 0 -14 17 15 28 103 41 268 41 410 -1 l82 -24 0
24 c0 35 -40 69 -101 88 -77 24 -282 29 -383 10z"/>
<path d="M4887 13739 c-23 -13 -13 -29 18 -29 23 0 24 -2 18 -45 -15 -115 153
-305 273 -308 47 -1 49 6 15 44 -17 18 -54 77 -82 132 -65 123 -108 179 -152
201 -40 18 -64 20 -90 5z"/>
<path d="M5200 13700 c-20 -13 -5 -23 55 -39 27 -7 103 -42 168 -78 88 -49
131 -67 167 -71 64 -6 87 2 69 24 -22 27 -199 126 -268 150 -68 24 -164 31
-191 14z"/>
<path d="M5460 13476 c0 -38 21 -89 48 -118 35 -38 52 -36 52 7 0 52 -24 102
-59 119 -39 21 -41 20 -41 -8z"/>
<path d="M6654 13323 c-54 -66 -104 -165 -111 -222 -8 -59 13 -108 60 -142 22
-16 42 -27 44 -25 3 2 -3 28 -11 57 -24 78 -21 166 6 209 l22 35 7 -54 c5 -35
15 -61 29 -75 l21 -21 19 22 c23 29 45 148 36 197 -7 36 -39 76 -62 76 -7 0
-34 -26 -60 -57z"/>
<path d="M6428 13276 c-12 -62 49 -138 86 -107 22 18 20 44 -4 59 -11 7 -20
18 -20 26 0 15 -32 46 -47 46 -6 0 -13 -11 -15 -24z"/>
<path d="M5816 12964 c-5 -17 -1 -35 9 -50 24 -38 36 -29 33 23 -4 56 -31 73
-42 27z"/>
<path d="M5452 12918 c-22 -22 -12 -52 33 -95 62 -59 79 -58 60 3 -20 68 -69
116 -93 92z"/>
<path d="M5580 12880 c-20 -37 47 -79 78 -48 19 19 15 26 -28 48 -39 20 -39
20 -50 0z"/>
<path d="M5947 12689 c-18 -10 -17 -13 11 -43 20 -21 38 -59 56 -116 26 -89
49 -120 99 -139 35 -14 35 -6 -4 106 -39 112 -72 169 -109 188 -34 18 -30 17
-53 4z"/>
<path d="M6633 12194 c-3 -8 -3 -41 0 -72 5 -42 12 -62 29 -75 21 -18 22 -18
29 1 4 11 24 32 43 47 30 23 36 34 36 65 0 44 -10 50 -81 50 -36 0 -51 -4 -56
-16z"/>
<path d="M5459 12041 c-42 -23 -44 -45 -5 -49 17 -2 75 -22 130 -44 106 -43
150 -46 187 -12 25 23 15 34 -30 34 -23 0 -68 15 -117 38 -106 52 -123 55
-165 33z"/>
<path d="M6282 11991 c5 -68 22 -94 75 -112 51 -16 67 -6 60 38 -7 42 -46 87
-101 115 l-39 20 5 -61z"/>
<path d="M6101 11841 c-31 -64 -24 -81 33 -81 41 0 45 2 65 40 12 22 21 52 21
65 0 23 -4 25 -47 25 -47 0 -48 -1 -72 -49z"/>
<path d="M8965 7350 c-13 -21 45 -203 86 -269 19 -31 22 -32 36 -18 14 14 13
23 -17 99 -36 89 -88 198 -95 198 -2 0 -7 -4 -10 -10z"/>
<path d="M8840 5536 c-14 -18 7 -71 80 -191 27 -45 59 -102 70 -126 21 -47 26
-114 10 -124 -6 -4 -10 6 -10 23 0 31 -33 82 -45 70 -4 -3 -1 -16 5 -29 12
-22 11 -60 -6 -230 -7 -70 1 -88 32 -71 11 6 16 26 18 69 3 70 29 123 69 137
33 12 96 -14 150 -63 35 -31 39 -33 54 -18 15 14 15 18 -2 44 -10 15 -73 85
-139 156 -140 147 -198 229 -222 310 -18 59 -39 73 -64 43z"/>
<path d="M8780 5026 c0 -2 7 -23 15 -47 44 -123 39 -250 -11 -316 -51 -67 -59
-27 -14 69 16 34 30 72 30 84 0 22 -23 47 -52 57 -32 11 -79 -77 -98 -186 -21
-118 -15 -110 -54 -71 -50 50 -72 46 -150 -32 l-66 -67 -34 69 c-36 71 -105
159 -166 211 -44 37 -113 84 -117 79 -2 -2 7 -37 21 -78 23 -67 25 -93 29
-274 4 -231 13 -267 95 -369 l49 -60 -22 -17 c-34 -26 -93 -118 -114 -179 -11
-31 -32 -121 -46 -200 -31 -170 -44 -219 -86 -309 l-31 -67 47 -72 c154 -238
231 -535 256 -991 15 -266 5 -627 -18 -605 -8 8 -20 15 -26 15 -7 0 -32 -44
-57 -98 -83 -179 -163 -279 -295 -369 -271 -183 -627 -245 -905 -157 -248 78
-373 277 -357 569 16 313 202 647 418 750 101 48 202 68 309 62 265 -15 306
-110 209 -485 -44 -170 -48 -219 -21 -252 l18 -23 32 34 c44 46 106 169 132
259 30 104 38 308 16 404 -39 167 -127 278 -258 328 -79 30 -284 43 -335 21
-21 -9 -67 -24 -103 -33 -62 -17 -66 -17 -121 2 -32 11 -86 37 -121 58 -54 32
-68 47 -100 106 -40 73 -68 175 -68 246 -1 27 -9 57 -24 82 l-24 38 -28 -42
c-22 -34 -29 -57 -32 -109 -7 -128 84 -345 178 -420 24 -20 57 -48 73 -64 16
-15 38 -32 48 -38 19 -10 19 -12 -10 -44 -120 -137 -220 -357 -272 -601 -30
-141 -38 -410 -15 -523 36 -176 92 -287 201 -396 82 -82 192 -144 312 -176
102 -27 302 -29 418 -5 345 74 641 268 766 501 l31 60 -6 -90 c-4 -49 -25
-250 -46 -447 -42 -371 -70 -662 -70 -713 l0 -29 41 39 c64 62 226 267 315
400 120 178 206 327 313 545 253 511 415 1058 462 1552 15 165 7 530 -15 657
-19 108 -23 118 -40 95 -8 -10 -18 -14 -26 -9 -23 14 6 259 95 790 87 518 122
797 98 782 -12 -7 -25 -59 -46 -174 -8 -45 -22 -91 -30 -103 -13 -18 -15 -11
-20 82 -3 57 -9 111 -12 121 -11 26 -31 20 -45 -13 -14 -33 -9 -107 16 -223 8
-38 14 -82 14 -100 l0 -31 -46 44 c-41 40 -46 42 -41 20 56 -247 46 -404 -31
-473 -19 -17 -20 -17 -26 5 -11 42 -6 70 25 162 17 50 32 102 32 115 0 31 -28
51 -68 51 l-32 0 -6 -242 c-8 -300 0 -355 50 -345 19 3 23 1 18 -12 -34 -89
-31 -313 9 -556 14 -88 26 -201 26 -250 l0 -90 -45 -55 c-25 -30 -50 -71 -55
-90 -20 -76 -40 -278 -50 -520 -17 -407 -33 -528 -85 -629 -13 -25 -34 -57
-48 -70 -21 -19 -24 -28 -16 -48 34 -89 -31 -310 -120 -406 -47 -51 -80 -63
-116 -45 -33 18 -23 30 60 75 39 21 70 45 70 53 0 8 -15 22 -33 30 -64 30 -54
77 59 266 96 161 124 219 138 284 7 30 19 204 26 385 8 182 18 362 24 400 36
255 46 464 46 980 0 429 -3 551 -18 695 -34 333 -90 600 -156 745 -25 54 -41
79 -41 61z m297 -2920 c-3 -33 -12 -81 -20 -106 l-14 -45 -12 28 c-22 56 -9
170 22 189 22 14 29 -6 24 -66z m-580 -1363 c-67 -88 -105 -117 -76 -60 14 27
100 117 112 117 4 0 -12 -26 -36 -57z"/>
<path d="M9076 4947 c-46 -111 -96 -307 -96 -376 0 -45 19 -75 46 -69 17 3 19
13 20 87 2 102 12 116 55 75 25 -22 30 -25 24 -9 -16 41 -16 72 -1 132 23 88
21 136 -8 170 l-24 28 -16 -38z"/>
</g>
</svg>
